<?xml version="1.0" encoding="UTF-8" standalone="no"?>
<!-- Created with Inkscape (http://www.inkscape.org/) -->
<svg
   xmlns:svg="http://www.w3.org/2000/svg"
   xmlns="http://www.w3.org/2000/svg"
   version="1.0"
   width="1238.4286"
   height="1238.4286"
   id="svg2">
  <defs
     id="defs4" />
  <g
     transform="translate(-426.49996,-1076.0049)"
     id="layer1">
    <path
       d="M 426.49996,2108.1567 L 426.49996,1901.8799 L 632.7768,1901.8799 L 839.05364,1901.8799 L 839.05364,2108.1567 L 839.05364,2314.4335 L 632.7768,2314.4335 L 426.49996,2314.4335 L 426.49996,2108.1567 z M 780.3367,2107.9648 L 780.3367,1960.5968 L 632.96869,1960.5968 L 485.60068,1960.5968 L 485.60068,2107.9648 L 485.60068,2255.3328 L 632.96869,2255.3328 L 780.3367,2255.3328 L 780.3367,2107.9648 z M 544.31762,2108.1567 L 544.31762,2019.6975 L 632.7768,2019.6975 L 721.23599,2019.6975 L 721.23599,2108.1567 L 721.23599,2196.6158 L 632.7768,2196.6158 L 544.31762,2196.6158 L 544.31762,2108.1567 z M 957.25507,2284.8831 L 957.25507,2255.3328 L 927.70471,2255.3328 L 898.15435,2255.3328 L 898.15435,2196.424 L 898.15435,2137.5151 L 927.70471,2137.5151 L 957.25507,2137.5151 L 957.25507,2167.0655 L 957.25507,2196.6158 L 986.80542,2196.6158 L 1016.3558,2196.6158 L 1016.3558,2137.5151 L 1016.3558,2078.4144 L 1045.7143,2078.4144 L 1075.0727,2078.4144 L 1075.0727,2049.0559 L 1075.0727,2019.6975 L 1016.1639,2019.6975 L 957.25507,2019.6975 L 957.25507,1990.1471 L 957.25507,1960.5968 L 1045.7143,1960.5968 L 1134.1734,1960.5968 L 1134.1734,1931.2383 L 1134.1734,1901.8799 L 1104.6231,1901.8799 L 1075.0727,1901.8799 L 1075.0727,1842.7791 L 1075.0727,1783.6784 L 957.06318,1783.6784 L 839.05364,1783.6784 L 839.05364,1813.2288 L 839.05364,1842.7791 L 809.69517,1842.7791 L 780.3367,1842.7791 L 780.3367,1813.2288 L 780.3367,1783.6784 L 750.78634,1783.6784 L 721.23599,1783.6784 L 721.23599,1813.2288 L 721.23599,1842.7791 L 691.87752,1842.7791 L 662.51905,1842.7791 L 662.51905,1783.6784 L 662.51905,1724.5777 L 603.41833,1724.5777 L 544.31762,1724.5777 L 544.31762,1754.1281 L 544.31762,1783.6784 L 573.86798,1783.6784 L 603.41833,1783.6784 L 603.41833,1813.2288 L 603.41833,1842.7791 L 573.86798,1842.7791 L 544.31762,1842.7791 L 544.31762,1813.2288 L 544.31762,1783.6784 L 485.40879,1783.6784 L 426.49996,1783.6784 L 426.49996,1754.1281 L 426.49996,1724.5777 L 456.05032,1724.5777 L 485.60068,1724.5777 L 485.60068,1636.1185 L 485.60068,1547.6593 L 544.50951,1547.6593 L 603.41833,1547.6593 L 603.41833,1577.2097 L 603.41833,1606.76 L 573.86798,1606.76 L 544.31762,1606.76 L 544.31762,1636.3104 L 544.31762,1665.8608 L 603.41833,1665.8608 L 662.51905,1665.8608 L 662.51905,1636.3104 L 662.51905,1606.76 L 691.87752,1606.76 L 721.23599,1606.76 L 721.23599,1636.3104 L 721.23599,1665.8608 L 780.14481,1665.8608 L 839.05364,1665.8608 L 839.05364,1636.3104 L 839.05364,1606.76 L 809.69517,1606.76 L 780.3367,1606.76 L 780.3367,1577.2097 L 780.3367,1547.6593 L 809.69517,1547.6593 L 839.05364,1547.6593 L 839.05364,1577.2097 L 839.05364,1606.76 L 898.15435,1606.76 L 957.25507,1606.76 L 957.25507,1636.3104 L 957.25507,1665.8608 L 986.80542,1665.8608 L 1016.3558,1665.8608 L 1016.3558,1606.76 L 1016.3558,1547.6593 L 957.25507,1547.6593 L 898.15435,1547.6593 L 898.15435,1459.2001 L 898.15435,1370.741 L 927.70471,1370.741 L 957.25507,1370.741 L 957.25507,1341.3825 L 957.25507,1312.024 L 927.70471,1312.024 L 898.15435,1312.024 L 898.15435,1282.4737 L 898.15435,1252.9233 L 957.25507,1252.9233 L 1016.3558,1252.9233 L 1016.3558,1194.0145 L 1016.3558,1135.1056 L 1045.7143,1135.1056 L 1075.0727,1135.1056 L 1075.0727,1105.5553 L 1075.0727,1076.0049 L 1134.1734,1076.0049 L 1193.2741,1076.0049 L 1193.2741,1105.5553 L 1193.2741,1135.1056 L 1163.7238,1135.1056 L 1134.1734,1135.1056 L 1134.1734,1164.4641 L 1134.1734,1193.8226 L 1104.6231,1193.8226 L 1075.0727,1193.8226 L 1075.0727,1252.9233 L 1075.0727,1312.024 L 1104.6231,1312.024 L 1134.1734,1312.024 L 1134.1734,1282.4737 L 1134.1734,1252.9233 L 1163.7238,1252.9233 L 1193.2741,1252.9233 L 1193.2741,1311.8321 L 1193.2741,1370.741 L 1075.2646,1370.741 L 957.25507,1370.741 L 957.25507,1429.6498 L 957.25507,1488.5586 L 986.80542,1488.5586 L 1016.3558,1488.5586 L 1016.3558,1459.2001 L 1016.3558,1429.8417 L 1045.7143,1429.8417 L 1075.0727,1429.8417 L 1075.0727,1459.2001 L 1075.0727,1488.5586 L 1104.6231,1488.5586 L 1134.1734,1488.5586 L 1134.1734,1459.2001 L 1134.1734,1429.8417 L 1163.7238,1429.8417 L 1193.2741,1429.8417 L 1193.2741,1518.3009 L 1193.2741,1606.76 L 1163.7238,1606.76 L 1134.1734,1606.76 L 1134.1734,1577.2097 L 1134.1734,1547.6593 L 1104.6231,1547.6593 L 1075.0727,1547.6593 L 1075.0727,1606.76 L 1075.0727,1665.8608 L 1134.1734,1665.8608 L 1193.2741,1665.8608 L 1193.2741,1695.2192 L 1193.2741,1724.5777 L 1222.8245,1724.5777 L 1252.3749,1724.5777 L 1252.3749,1636.1185 L 1252.3749,1547.6593 L 1311.2837,1547.6593 L 1370.1925,1547.6593 L 1370.1925,1577.2097 L 1370.1925,1606.76 L 1399.551,1606.76 L 1428.9095,1606.76 L 1428.9095,1577.2097 L 1428.9095,1547.6593 L 1458.4598,1547.6593 L 1488.0102,1547.6593 L 1488.0102,1577.2097 L 1488.0102,1606.76 L 1517.5605,1606.76 L 1547.1108,1606.76 L 1547.1108,1665.6689 L 1547.1108,1724.5777 L 1576.4693,1724.5777 L 1605.8278,1724.5777 L 1605.8278,1665.6689 L 1605.8278,1606.76 L 1635.3781,1606.76 L 1664.9285,1606.76 L 1664.9285,1724.7696 L 1664.9285,1842.7791 L 1635.3781,1842.7791 L 1605.8278,1842.7791 L 1605.8278,1872.3295 L 1605.8278,1901.8799 L 1635.3781,1901.8799 L 1664.9285,1901.8799 L 1664.9285,1931.2383 L 1664.9285,1960.5968 L 1635.3781,1960.5968 L 1605.8278,1960.5968 L 1605.8278,2019.5056 L 1605.8278,2078.4144 L 1576.4693,2078.4144 L 1547.1108,2078.4144 L 1547.1108,2107.9648 L 1547.1108,2137.5151 L 1606.0197,2137.5151 L 1664.9285,2137.5151 L 1664.9285,2167.0655 L 1664.9285,2196.6158 L 1576.4693,2196.6158 L 1488.0102,2196.6158 L 1488.0102,2225.9743 L 1488.0102,2255.3328 L 1458.4598,2255.3328 L 1428.9095,2255.3328 L 1428.9095,2284.8831 L 1428.9095,2314.4335 L 1251.9911,2314.4335 L 1075.0727,2314.4335 L 1075.0727,2255.5247 L 1075.0727,2196.6158 L 1045.7143,2196.6158 L 1016.3558,2196.6158 L 1016.3558,2255.5247 L 1016.3558,2314.4335 L 986.80542,2314.4335 L 957.25507,2314.4335 L 957.25507,2284.8831 z M 1193.2741,2225.9743 L 1193.2741,2196.6158 L 1163.7238,2196.6158 L 1134.1734,2196.6158 L 1134.1734,2225.9743 L 1134.1734,2255.3328 L 1163.7238,2255.3328 L 1193.2741,2255.3328 L 1193.2741,2225.9743 z M 1428.9095,2225.9743 L 1428.9095,2196.6158 L 1458.4598,2196.6158 L 1488.0102,2196.6158 L 1488.0102,2137.5151 L 1488.0102,2078.4144 L 1517.5605,2078.4144 L 1547.1108,2078.4144 L 1547.1108,2019.5056 L 1547.1108,1960.5968 L 1576.4693,1960.5968 L 1605.8278,1960.5968 L 1605.8278,1931.2383 L 1605.8278,1901.8799 L 1546.919,1901.8799 L 1488.0102,1901.8799 L 1488.0102,1872.3295 L 1488.0102,1842.7791 L 1546.919,1842.7791 L 1605.8278,1842.7791 L 1605.8278,1813.2288 L 1605.8278,1783.6784 L 1576.4693,1783.6784 L 1547.1108,1783.6784 L 1547.1108,1754.1281 L 1547.1108,1724.5777 L 1517.5605,1724.5777 L 1488.0102,1724.5777 L 1488.0102,1665.6689 L 1488.0102,1606.76 L 1458.4598,1606.76 L 1428.9095,1606.76 L 1428.9095,1665.6689 L 1428.9095,1724.5777 L 1399.551,1724.5777 L 1370.1925,1724.5777 L 1370.1925,1665.6689 L 1370.1925,1606.76 L 1340.6422,1606.76 L 1311.0918,1606.76 L 1311.0918,1665.6689 L 1311.0918,1724.5777 L 1281.7333,1724.5777 L 1252.3749,1724.5777 L 1252.3749,1783.6784 L 1252.3749,1842.7791 L 1222.8245,1842.7791 L 1193.2741,1842.7791 L 1193.2741,1931.2383 L 1193.2741,2019.6975 L 1163.7238,2019.6975 L 1134.1734,2019.6975 L 1134.1734,2078.6063 L 1134.1734,2137.5151 L 1163.7238,2137.5151 L 1193.2741,2137.5151 L 1193.2741,2078.6063 L 1193.2741,2019.6975 L 1252.183,2019.6975 L 1311.0918,2019.6975 L 1311.0918,2078.6063 L 1311.0918,2137.5151 L 1281.7333,2137.5151 L 1252.3749,2137.5151 L 1252.3749,2167.0655 L 1252.3749,2196.6158 L 1281.7333,2196.6158 L 1311.0918,2196.6158 L 1311.0918,2225.9743 L 1311.0918,2255.3328 L 1370.0006,2255.3328 L 1428.9095,2255.3328 L 1428.9095,2225.9743 z M 1370.1925,2108.1567 L 1370.1925,2019.6975 L 1340.6422,2019.6975 L 1311.0918,2019.6975 L 1311.0918,1990.1471 L 1311.0918,1960.5968 L 1281.7333,1960.5968 L 1252.3749,1960.5968 L 1252.3749,1931.2383 L 1252.3749,1901.8799 L 1281.7333,1901.8799 L 1311.0918,1901.8799 L 1311.0918,1931.2383 L 1311.0918,1960.5968 L 1340.6422,1960.5968 L 1370.1925,1960.5968 L 1370.1925,1872.1376 L 1370.1925,1783.6784 L 1399.551,1783.6784 L 1428.9095,1783.6784 L 1428.9095,1754.1281 L 1428.9095,1724.5777 L 1458.4598,1724.5777 L 1488.0102,1724.5777 L 1488.0102,1783.6784 L 1488.0102,1842.7791 L 1458.4598,1842.7791 L 1428.9095,1842.7791 L 1428.9095,1901.688 L 1428.9095,1960.5968 L 1458.4598,1960.5968 L 1488.0102,1960.5968 L 1488.0102,2019.5056 L 1488.0102,2078.4144 L 1458.4598,2078.4144 L 1428.9095,2078.4144 L 1428.9095,2137.5151 L 1428.9095,2196.6158 L 1399.551,2196.6158 L 1370.1925,2196.6158 L 1370.1925,2108.1567 z M 1428.9095,1990.1471 L 1428.9095,1960.5968 L 1399.551,1960.5968 L 1370.1925,1960.5968 L 1370.1925,1990.1471 L 1370.1925,2019.6975 L 1399.551,2019.6975 L 1428.9095,2019.6975 L 1428.9095,1990.1471 z M 839.05364,1754.1281 L 839.05364,1724.5777 L 898.15435,1724.5777 L 957.25507,1724.5777 L 957.25507,1695.2192 L 957.25507,1665.8608 L 898.15435,1665.8608 L 839.05364,1665.8608 L 839.05364,1695.2192 L 839.05364,1724.5777 L 809.69517,1724.5777 L 780.3367,1724.5777 L 780.3367,1754.1281 L 780.3367,1783.6784 L 809.69517,1783.6784 L 839.05364,1783.6784 L 839.05364,1754.1281 z M 1193.2741,1754.1281 L 1193.2741,1724.5777 L 1163.7238,1724.5777 L 1134.1734,1724.5777 L 1134.1734,1754.1281 L 1134.1734,1783.6784 L 1163.7238,1783.6784 L 1193.2741,1783.6784 L 1193.2741,1754.1281 z M 721.23599,1695.2192 L 721.23599,1665.8608 L 691.87752,1665.8608 L 662.51905,1665.8608 L 662.51905,1695.2192 L 662.51905,1724.5777 L 691.87752,1724.5777 L 721.23599,1724.5777 L 721.23599,1695.2192 z M 1075.0727,1695.2192 L 1075.0727,1665.8608 L 1045.7143,1665.8608 L 1016.3558,1665.8608 L 1016.3558,1695.2192 L 1016.3558,1724.5777 L 1045.7143,1724.5777 L 1075.0727,1724.5777 L 1075.0727,1695.2192 z M 1075.0727,1518.109 L 1075.0727,1488.5586 L 1045.7143,1488.5586 L 1016.3558,1488.5586 L 1016.3558,1518.109 L 1016.3558,1547.6593 L 1045.7143,1547.6593 L 1075.0727,1547.6593 L 1075.0727,1518.109 z M 1605.8278,2284.8831 L 1605.8278,2255.3328 L 1635.3781,2255.3328 L 1664.9285,2255.3328 L 1664.9285,2284.8831 L 1664.9285,2314.4335 L 1635.3781,2314.4335 L 1605.8278,2314.4335 L 1605.8278,2284.8831 z M 898.15435,1872.3295 L 898.15435,1842.7791 L 957.25507,1842.7791 L 1016.3558,1842.7791 L 1016.3558,1872.3295 L 1016.3558,1901.8799 L 957.25507,1901.8799 L 898.15435,1901.8799 L 898.15435,1872.3295 z M 426.49996,1282.2818 L 426.49996,1076.0049 L 632.7768,1076.0049 L 839.05364,1076.0049 L 839.05364,1282.2818 L 839.05364,1488.5586 L 632.7768,1488.5586 L 426.49996,1488.5586 L 426.49996,1282.2818 z M 780.3367,1282.4737 L 780.3367,1135.1056 L 632.96869,1135.1056 L 485.60068,1135.1056 L 485.60068,1282.4737 L 485.60068,1429.8417 L 632.96869,1429.8417 L 780.3367,1429.8417 L 780.3367,1282.4737 z M 544.31762,1282.2818 L 544.31762,1193.8226 L 632.7768,1193.8226 L 721.23599,1193.8226 L 721.23599,1282.2818 L 721.23599,1370.741 L 632.7768,1370.741 L 544.31762,1370.741 L 544.31762,1282.2818 z M 1252.3749,1282.2818 L 1252.3749,1076.0049 L 1458.6517,1076.0049 L 1664.9285,1076.0049 L 1664.9285,1282.2818 L 1664.9285,1488.5586 L 1458.6517,1488.5586 L 1252.3749,1488.5586 L 1252.3749,1282.2818 z M 1605.8278,1282.4737 L 1605.8278,1135.1056 L 1458.4598,1135.1056 L 1311.0918,1135.1056 L 1311.0918,1282.4737 L 1311.0918,1429.8417 L 1458.4598,1429.8417 L 1605.8278,1429.8417 L 1605.8278,1282.4737 z M 1370.1925,1282.2818 L 1370.1925,1193.8226 L 1458.6517,1193.8226 L 1547.1108,1193.8226 L 1547.1108,1282.2818 L 1547.1108,1370.741 L 1458.6517,1370.741 L 1370.1925,1370.741 L 1370.1925,1282.2818 z"
       id="path2470"
       style="fill:#000000" />
  </g>
</svg>
